# Blender v3.1.2 OBJ File: ''
# www.blender.org
mtllib coal.mtl
o Icosphere
v -2.345712 -0.329299 2.039931
v -2.345712 -1.253135 1.116095
v -2.345712 -0.329299 1.116095
v -2.345712 -1.253135 0.192258
v -2.345712 -0.329299 0.192258
v -0.498039 -2.176971 2.039931
v -1.421875 -0.329299 2.963768
v -1.421875 -1.253135 2.039931
v -1.421875 -0.329299 2.039931
v -0.498039 -1.253135 2.963768
v -0.498039 -0.329299 2.963768
v -0.498039 -1.253135 2.039931
v -0.498039 -0.329299 2.039931
v -1.421875 -2.176971 1.116095
v -1.421875 -2.176971 0.192258
v -0.498039 -3.100808 1.116095
v -0.498039 -2.176971 1.116095
v -0.498039 -3.100808 0.192258
v -0.498039 -2.176971 0.192258
v -1.421875 -1.253135 1.116095
v -1.421875 -0.329299 1.116095
v -1.421875 -1.253135 0.192258
v -0.498039 -1.253135 1.116095
v -2.345712 0.594526 2.039931
v -2.345712 1.518363 2.039931
v -2.345712 0.594526 1.116095
v -2.345712 1.518363 1.116095
v -2.345712 0.594526 0.192258
v -2.345712 1.518363 0.192258
v -2.345712 2.442199 1.116095
v -2.345712 2.442199 0.192258
v -1.421875 0.594526 2.963768
v -1.421875 0.594526 2.039931
v -1.421875 1.518363 2.039931
v -0.498039 0.594526 2.963768
v -0.498039 1.518363 2.963768
v -0.498039 0.594526 2.039931
v -0.498039 1.518363 2.039931
v -1.421875 2.442199 2.039931
v -0.498039 2.442199 2.039931
v -1.421875 1.518363 1.116095
v -1.421875 2.442199 1.116095
v -1.421875 2.442199 0.192258
v -0.498039 2.442199 1.116095
v -0.498039 2.442199 0.192258
v -0.498039 3.366036 0.192258
v -2.345712 -1.253135 -0.731566
v -2.345712 -0.329299 -0.731566
v -2.345712 -1.253135 -1.655403
v -2.345712 -0.329299 -1.655403
v -1.421875 -2.176971 -0.731566
v -1.421875 -2.176971 -1.655403
v -0.498039 -3.100808 -0.731566
v -0.498039 -2.176971 -0.731566
v -0.498039 -2.176971 -1.655403
v -1.421875 -1.253135 -0.731566
v -1.421875 -1.253135 -1.655403
v -1.421875 -0.329299 -1.655403
v -0.498039 -1.253135 -1.655403
v -0.498039 -2.176971 -2.579239
v -1.421875 -1.253135 -2.579239
v -1.421875 -0.329299 -2.579239
v -0.498039 -1.253135 -2.579239
v -0.498039 -0.329299 -2.579239
v -0.498039 -0.329299 -3.503076
v -2.345712 0.594526 -0.731566
v -2.345712 1.518363 -0.731566
v -2.345712 0.594526 -1.655403
v -2.345712 1.518363 -1.655403
v -2.345712 2.442199 -0.731566
v -1.421875 1.518363 -0.731566
v -1.421875 0.594526 -1.655403
v -1.421875 1.518363 -1.655403
v -1.421875 2.442199 -0.731566
v -1.421875 2.442199 -1.655403
v -0.498039 2.442199 -0.731566
v -0.498039 3.366036 -0.731566
v -0.498039 2.442199 -1.655403
v -0.498039 3.366036 -1.655403
v -1.421875 0.594526 -2.579239
v -1.421875 1.518363 -2.579239
v -0.498039 0.594526 -2.579239
v -0.498039 1.518363 -2.579239
v -0.498039 0.594526 -3.503076
v -0.498039 1.518363 -3.503076
v -1.421875 2.442199 -2.579239
v -0.498039 2.442199 -2.579239
v -0.498039 3.366036 -2.579239
v -0.498039 2.442199 -3.503076
v 0.425786 -2.176971 2.039931
v 1.349622 -2.176971 2.039931
v 0.425786 -1.253135 2.963768
v 0.425786 -0.329299 2.963768
v 0.425786 -1.253135 2.039931
v 1.349622 -1.253135 2.963768
v 1.349622 -0.329299 2.963768
v 1.349622 -1.253135 2.039931
v 1.349622 -0.329299 2.039931
v 0.425786 -3.100808 1.116095
v 0.425786 -2.176971 1.116095
v 0.425786 -3.100808 0.192258
v 1.349622 -3.100808 1.116095
v 1.349622 -2.176971 1.116095
v 1.349622 -3.100808 0.192258
v 1.349622 -2.176971 0.192258
v 1.349622 -1.253135 1.116095
v 2.273459 -1.253135 2.039931
v 2.273459 -0.329299 2.039931
v 2.273459 -2.176971 1.116095
v 2.273459 -2.176971 0.192258
v 2.273459 -1.253135 1.116095
v 2.273459 -0.329299 1.116095
v 2.273459 -1.253135 0.192258
v 2.273459 -0.329299 0.192258
v 0.425786 0.594526 2.963768
v 0.425786 1.518363 2.963768
v 0.425786 1.518363 2.039931
v 1.349622 0.594526 2.963768
v 1.349622 1.518363 2.963768
v 1.349622 0.594526 2.039931
v 1.349622 1.518363 2.039931
v 0.425786 2.442199 2.039931
v 1.349622 2.442199 2.039931
v 1.349622 1.518363 1.116095
v 1.349622 1.518363 0.192258
v 0.425786 2.442199 1.116095
v 0.425786 2.442199 0.192258
v 0.425786 3.366036 0.192258
v 1.349622 2.442199 1.116095
v 1.349622 2.442199 0.192258
v 2.273459 0.594526 2.039931
v 2.273459 1.518363 2.039931
v 2.273459 0.594526 1.116095
v 2.273459 1.518363 1.116095
v 2.273459 0.594526 0.192258
v 2.273459 1.518363 0.192258
v 2.273459 2.442199 0.192258
v 0.425786 -3.100808 -0.731566
v 0.425786 -2.176971 -0.731566
v 0.425786 -2.176971 -1.655403
v 1.349622 -3.100808 -0.731566
v 1.349622 -2.176971 -0.731566
v 1.349622 -2.176971 -1.655403
v 1.349622 -1.253135 -1.655403
v 0.425786 -2.176971 -2.579239
v 1.349622 -2.176971 -2.579239
v 0.425786 -1.253135 -2.579239
v 0.425786 -0.329299 -2.579239
v 0.425786 -0.329299 -3.503076
v 1.349622 -1.253135 -2.579239
v 1.349622 -0.329299 -2.579239
v 1.349622 -0.329299 -3.503076
v 2.273459 -2.176971 -0.731566
v 2.273459 -2.176971 -1.655403
v 2.273459 -1.253135 -0.731566
v 2.273459 -0.329299 -0.731566
v 2.273459 -1.253135 -1.655403
v 2.273459 -0.329299 -1.655403
v 2.273459 -1.253135 -2.579239
v 2.273459 -0.329299 -2.579239
v 1.349622 1.518363 -1.655403
v 0.425786 2.442199 -0.731566
v 0.425786 3.366036 -0.731566
v 0.425786 2.442199 -1.655403
v 0.425786 3.366036 -1.655403
v 1.349622 2.442199 -0.731566
v 1.349622 3.366036 -0.731566
v 1.349622 2.442199 -1.655403
v 1.349622 3.366036 -1.655403
v 0.425786 0.594526 -3.503076
v 0.425786 1.518363 -3.503076
v 1.349622 0.594526 -2.579239
v 1.349622 1.518363 -2.579239
v 1.349622 0.594526 -3.503076
v 1.349622 1.518363 -3.503076
v 0.425786 2.442199 -2.579239
v 0.425786 3.366036 -2.579239
v 0.425786 2.442199 -3.503076
v 1.349622 2.442199 -2.579239
v 1.349622 2.442199 -3.503076
v 2.273459 0.594526 -0.731566
v 2.273459 1.518363 -0.731566
v 2.273459 0.594526 -1.655403
v 2.273459 1.518363 -1.655403
v 2.273459 2.442199 -0.731566
v 2.273459 2.442199 -1.655403
v 2.273459 0.594526 -2.579239
v 2.273459 1.518363 -2.579239
vn -1.0000 0.0000 0.0000
vn 0.0000 0.0000 1.0000
vn 0.0000 -1.0000 0.0000
vn 0.0000 1.0000 0.0000
vn 0.0000 0.0000 -1.0000
vn 1.0000 0.0000 0.0000
usemtl None
s off
f 2//1 3//1 5//1 4//1
f 10//1 11//1 13//1 12//1
f 8//2 12//2 13//2 9//2
f 7//3 9//3 13//3 11//3
f 16//1 17//1 19//1 18//1
f 14//3 15//3 19//3 17//3
f 2//2 20//2 21//2 3//2
f 2//3 4//3 22//3 20//3
f 8//1 9//1 21//1 20//1
f 8//3 20//3 23//3 12//3
f 14//1 20//1 22//1 15//1
f 14//2 17//2 23//2 20//2
f 6//1 12//1 23//1 17//1
f 1//3 3//3 21//3 9//3
f 26//1 27//1 29//1 28//1
f 35//1 36//1 38//1 37//1
f 33//2 37//2 38//2 34//2
f 35//4 37//4 33//4 32//4
f 44//4 45//4 43//4 42//4
f 24//2 33//2 34//2 25//2
f 42//4 43//4 31//4 30//4
f 24//1 25//1 27//1 26//1
f 40//4 44//4 42//4 39//4
f 27//1 30//1 31//1 29//1
f 34//2 38//2 40//2 39//2
f 34//1 39//1 42//1 41//1
f 27//2 41//2 42//2 30//2
f 34//4 41//4 27//4 25//4
f 47//1 48//1 50//1 49//1
f 51//3 52//3 55//3 54//3
f 62//5 64//5 63//5 61//5
f 50//5 58//5 57//5 49//5
f 47//3 49//3 57//3 56//3
f 57//1 58//1 62//1 61//1
f 57//3 61//3 63//3 59//3
f 51//1 56//1 57//1 52//1
f 57//5 59//5 55//5 52//5
f 55//1 59//1 63//1 60//1
f 66//1 67//1 69//1 68//1
f 76//1 77//1 79//1 78//1
f 76//4 78//4 75//4 74//4
f 82//1 83//1 85//1 84//1
f 81//5 83//5 82//5 80//5
f 69//5 73//5 72//5 68//5
f 71//4 73//4 69//4 67//4
f 72//1 73//1 81//1 80//1
f 78//1 79//1 88//1 87//1
f 78//4 87//4 86//4 75//4
f 71//1 74//1 75//1 73//1
f 83//1 87//1 89//1 85//1
f 86//5 87//5 83//5 81//5
f 73//1 75//1 86//1 81//1
f 70//5 74//5 71//5 67//5
f 97//6 98//6 96//6 95//6
f 92//2 95//2 96//2 93//2
f 92//3 94//3 97//3 95//3
f 104//6 105//6 103//6 102//6
f 99//2 102//2 103//2 100//2
f 99//3 101//3 104//3 102//3
f 113//6 114//6 112//6 111//6
f 97//2 107//2 108//2 98//2
f 103//3 105//3 110//3 109//3
f 90//3 100//3 103//3 91//3
f 111//6 112//6 108//6 107//6
f 90//2 91//2 97//2 94//2
f 110//6 113//6 111//6 109//6
f 103//6 106//6 97//6 91//6
f 103//2 109//2 111//2 106//2
f 97//3 106//3 111//3 107//3
f 120//6 121//6 119//6 118//6
f 115//2 118//2 119//2 116//2
f 119//4 121//4 117//4 116//4
f 129//4 130//4 127//4 126//4
f 135//6 136//6 134//6 133//6
f 120//2 131//2 132//2 121//2
f 134//4 136//4 125//4 124//4
f 133//6 134//6 132//6 131//6
f 123//4 129//4 126//4 122//4
f 117//2 121//2 123//2 122//2
f 125//6 130//6 129//6 124//6
f 124//6 129//6 123//6 121//6
f 125//2 136//2 137//2 130//2
f 132//4 134//4 124//4 121//4
f 139//5 142//5 141//5 138//5
f 139//3 140//3 143//3 142//3
f 148//5 151//5 150//5 147//5
f 148//3 149//3 152//3 151//3
f 157//6 158//6 156//6 155//6
f 142//3 143//3 154//3 153//3
f 151//5 160//5 159//5 150//5
f 140//3 145//3 146//3 143//3
f 159//6 160//6 158//6 157//6
f 147//5 150//5 146//5 145//5
f 154//6 157//6 155//6 153//6
f 146//6 150//6 144//6 143//6
f 144//5 157//5 154//5 143//5
f 144//3 150//3 159//3 157//3
f 168//6 169//6 167//6 166//6
f 162//2 166//2 167//2 163//2
f 165//5 169//5 168//5 164//5
f 167//4 169//4 165//4 163//4
f 174//6 175//6 173//6 172//6
f 171//5 175//5 174//5 170//5
f 179//4 180//4 178//4 176//4
f 183//6 184//6 182//6 181//6
f 185//4 186//4 168//4 166//4
f 173//5 188//5 187//5 172//5
f 187//6 188//6 184//6 183//6
f 176//6 177//6 165//6 164//6
f 168//4 179//4 176//4 164//4
f 175//6 180//6 179//6 173//6
f 178//5 180//5 175//5 171//5
f 184//6 186//6 185//6 182//6
f 173//6 179//6 168//6 161//6
f 168//5 186//5 184//5 161//5
f 184//4 188//4 173//4 161//4
f 10//2 92//2 93//2 11//2
f 10//3 12//3 94//3 92//3
f 16//2 99//2 100//2 17//2
f 16//3 18//3 101//3 99//3
f 6//2 90//2 94//2 12//2
f 6//3 17//3 100//3 90//3
f 35//2 115//2 116//2 36//2
f 116//4 117//4 38//4 36//4
f 45//2 127//2 128//2 46//2
f 126//4 127//4 45//4 44//4
f 38//2 117//2 122//2 40//2
f 122//4 126//4 44//4 40//4
f 54//5 139//5 138//5 53//5
f 54//3 55//3 140//3 139//3
f 64//5 148//5 147//5 63//5
f 64//3 65//3 149//3 148//3
f 63//5 147//5 145//5 60//5
f 55//3 60//3 145//3 140//3
f 163//4 165//4 79//4 77//4
f 85//5 171//5 170//5 84//5
f 88//5 177//5 176//5 87//5
f 176//4 178//4 89//4 87//4
f 89//5 178//5 171//5 85//5
f 165//4 177//4 88//4 79//4
f 18//1 19//1 54//1 53//1
f 15//3 51//3 54//3 19//3
f 4//1 5//1 48//1 47//1
f 15//1 22//1 56//1 51//1
f 4//3 47//3 56//3 22//3
f 141//6 142//6 105//6 104//6
f 101//3 138//3 141//3 104//3
f 155//6 156//6 114//6 113//6
f 153//6 155//6 113//6 110//6
f 105//3 142//3 153//3 110//3
f 28//1 29//1 67//1 66//1
f 45//1 46//1 77//1 76//1
f 45//4 76//4 74//4 43//4
f 29//1 31//1 70//1 67//1
f 43//4 74//4 70//4 31//4
f 181//6 182//6 136//6 135//6
f 162//6 163//6 128//6 127//6
f 130//4 166//4 162//4 127//4
f 182//6 185//6 137//6 136//6
f 137//4 185//4 166//4 130//4
f 3//1 26//1 28//1 5//1
f 7//1 32//1 33//1 9//1
f 7//2 11//2 35//2 32//2
f 1//1 24//1 26//1 3//1
f 1//2 9//2 33//2 24//2
f 48//1 66//1 68//1 50//1
f 64//1 82//1 84//1 65//1
f 80//5 82//5 64//5 62//5
f 58//1 72//1 80//1 62//1
f 68//5 72//5 58//5 50//5
f 98//6 120//6 118//6 96//6
f 93//2 96//2 118//2 115//2
f 114//6 135//6 133//6 112//6
f 112//6 133//6 131//6 108//6
f 98//2 108//2 131//2 120//2
f 152//6 174//6 172//6 151//6
f 170//5 174//5 152//5 149//5
f 158//6 183//6 181//6 156//6
f 160//6 187//6 183//6 158//6
f 172//5 187//5 160//5 151//5
f 5//1 28//1 66//1 48//1
f 156//6 181//6 135//6 114//6
f 11//2 93//2 115//2 35//2
f 84//5 170//5 149//5 65//5
f 18//3 53//3 138//3 101//3
f 128//4 163//4 77//4 46//4
