# Blender v3.1.2 OBJ File: ''
# www.blender.org
mtllib Whole_egg.mtl
o Egg_v1
v 27.500000 -0.000001 5.000000
v 32.500000 -0.000001 5.000000
v 27.500000 4.999999 5.000001
v 32.500000 4.999999 5.000001
v 27.500000 -0.000002 15.000000
v 27.500000 4.999998 15.000001
v 22.500000 -0.000002 15.000000
v 22.500000 4.999998 15.000001
v 22.500000 -0.000003 20.000000
v 22.500000 4.999997 20.000000
v 12.500000 -0.000003 20.000000
v 12.500000 4.999997 20.000000
v 12.500000 -0.000004 25.000000
v 12.500000 4.999996 25.000000
v 2.500000 -0.000004 25.000000
v 2.500000 4.999996 25.000000
v 2.500000 -0.000005 30.000000
v 2.500000 4.999995 30.000000
v -12.500000 -0.000005 30.000000
v -12.500000 4.999995 30.000000
v -12.500000 -0.000004 25.000000
v -12.500000 4.999996 25.000000
v -22.500000 -0.000004 25.000000
v -22.500000 4.999996 25.000000
v -22.500000 -0.000003 20.000000
v -22.500000 4.999997 20.000000
v -27.500000 -0.000003 20.000000
v -27.500000 4.999997 20.000000
v -27.500000 -0.000002 10.000000
v -27.500000 4.999999 10.000001
v -32.500000 -0.000002 10.000000
v -32.500000 4.999999 10.000001
v -32.500000 0.000002 -10.000000
v -32.500000 5.000001 -9.999999
v -27.500000 0.000002 -10.000000
v -27.500000 5.000001 -9.999999
v -27.500000 0.000003 -20.000000
v -27.500000 5.000003 -20.000000
v -22.500000 0.000003 -20.000000
v -22.500000 5.000003 -20.000000
v -22.500000 0.000004 -25.000000
v -22.500000 5.000004 -25.000000
v -12.500000 0.000004 -25.000000
v -12.500000 5.000004 -25.000000
v -12.500000 0.000005 -30.000000
v -12.500000 5.000005 -30.000000
v 2.500000 0.000005 -30.000000
v 2.500000 5.000005 -30.000000
v 2.500000 0.000004 -25.000000
v 2.500000 5.000004 -25.000000
v 12.500000 0.000004 -25.000000
v 12.500000 5.000004 -25.000000
v 12.500000 0.000003 -20.000000
v 12.500000 5.000003 -20.000000
v 22.500000 0.000003 -20.000000
v 22.500000 5.000003 -20.000000
v 22.500000 0.000002 -15.000000
v 22.500000 5.000002 -14.999999
v 27.500000 0.000002 -15.000000
v 27.500000 5.000002 -14.999999
v 27.500000 0.000001 -5.000000
v 27.500000 5.000001 -4.999999
v 32.500000 0.000001 -5.000000
v 32.500000 5.000001 -4.999999
vt 0.561526 0.814106
vt 0.561526 0.876853
vt 0.561526 0.814106
vt 0.561526 0.876853
vt 0.686167 0.814106
vt 0.686167 0.814106
vt 0.686167 0.751358
vt 0.686167 0.751358
vt 0.748487 0.751358
vt 0.748487 0.751358
vt 0.748487 0.625862
vt 0.748487 0.625862
vt 0.810807 0.625862
vt 0.810807 0.625862
vt 0.810807 0.500367
vt 0.810807 0.500367
vt 0.873127 0.500367
vt 0.873127 0.500367
vt 0.873127 0.312124
vt 0.873127 0.312124
vt 0.810807 0.312124
vt 0.810807 0.312124
vt 0.810807 0.186628
vt 0.810807 0.186628
vt 0.748487 0.186628
vt 0.748487 0.186628
vt 0.748487 0.123880
vt 0.748487 0.123880
vt 0.623846 0.123880
vt 0.623846 0.123880
vt 0.623846 0.061133
vt 0.623846 0.061133
vt 0.374565 0.061133
vt 0.374565 0.061133
vt 0.374565 0.123880
vt 0.374565 0.123880
vt 0.249925 0.123880
vt 0.249925 0.123880
vt 0.249925 0.186628
vt 0.249925 0.186628
vt 0.187604 0.186628
vt 0.187604 0.186628
vt 0.187604 0.312124
vt 0.187604 0.312124
vt 0.125284 0.312124
vt 0.125284 0.312124
vt 0.125284 0.500367
vt 0.125284 0.500367
vt 0.187604 0.500367
vt 0.187604 0.500367
vt 0.187604 0.625862
vt 0.187604 0.625862
vt 0.249925 0.625862
vt 0.249925 0.625862
vt 0.249925 0.751358
vt 0.249925 0.751358
vt 0.312245 0.751358
vt 0.312245 0.751358
vt 0.312245 0.814106
vt 0.312245 0.814106
vt 0.436886 0.814106
vt 0.436886 0.814106
vt 0.436886 0.876853
vt 0.436886 0.876853
vn 0.0000 -0.0000 1.0000
vn 1.0000 0.0000 0.0000
vn -1.0000 0.0000 0.0000
vn 0.0000 0.0000 -1.0000
vn 0.0000 1.0000 0.0000
vn 0.0000 -1.0000 -0.0000
usemtl Steel_-_Satin
s 1
f 1/1/1 2/2/1 3/3/1
f 3/3/1 2/2/1 4/4/1
f 5/5/2 1/1/2 6/6/2
f 6/6/2 1/1/2 3/3/2
f 7/7/1 5/5/1 8/8/1
f 8/8/1 5/5/1 6/6/1
f 9/9/2 7/7/2 10/10/2
f 10/10/2 7/7/2 8/8/2
f 11/11/1 9/9/1 12/12/1
f 12/12/1 9/9/1 10/10/1
f 13/13/2 11/11/2 14/14/2
f 14/14/2 11/11/2 12/12/2
f 15/15/1 13/13/1 16/16/1
f 16/16/1 13/13/1 14/14/1
f 17/17/2 15/15/2 18/18/2
f 18/18/2 15/15/2 16/16/2
f 19/19/1 17/17/1 20/20/1
f 20/20/1 17/17/1 18/18/1
f 21/21/3 19/19/3 22/22/3
f 22/22/3 19/19/3 20/20/3
f 23/23/1 21/21/1 24/24/1
f 24/24/1 21/21/1 22/22/1
f 25/25/3 23/23/3 26/26/3
f 26/26/3 23/23/3 24/24/3
f 27/27/1 25/25/1 28/28/1
f 28/28/1 25/25/1 26/26/1
f 29/29/3 27/27/3 30/30/3
f 30/30/3 27/27/3 28/28/3
f 31/31/1 29/29/1 32/32/1
f 32/32/1 29/29/1 30/30/1
f 33/33/3 31/31/3 34/34/3
f 34/34/3 31/31/3 32/32/3
f 35/35/4 33/33/4 36/36/4
f 36/36/4 33/33/4 34/34/4
f 37/37/3 35/35/3 38/38/3
f 38/38/3 35/35/3 36/36/3
f 39/39/4 37/37/4 40/40/4
f 40/40/4 37/37/4 38/38/4
f 41/41/3 39/39/3 42/42/3
f 42/42/3 39/39/3 40/40/3
f 43/43/4 41/41/4 44/44/4
f 44/44/4 41/41/4 42/42/4
f 45/45/3 43/43/3 46/46/3
f 46/46/3 43/43/3 44/44/3
f 47/47/4 45/45/4 48/48/4
f 48/48/4 45/45/4 46/46/4
f 49/49/2 47/47/2 50/50/2
f 50/50/2 47/47/2 48/48/2
f 51/51/4 49/49/4 52/52/4
f 52/52/4 49/49/4 50/50/4
f 53/53/2 51/51/2 54/54/2
f 54/54/2 51/51/2 52/52/2
f 55/55/4 53/53/4 56/56/4
f 56/56/4 53/53/4 54/54/4
f 57/57/2 55/55/2 58/58/2
f 58/58/2 55/55/2 56/56/2
f 59/59/4 57/57/4 60/60/4
f 60/60/4 57/57/4 58/58/4
f 61/61/2 59/59/2 62/62/2
f 62/62/2 59/59/2 60/60/2
f 63/63/4 61/61/4 64/64/4
f 64/64/4 61/61/4 62/62/4
f 2/2/2 63/63/2 4/4/2
f 4/4/2 63/63/2 64/64/2
f 4/4/5 64/64/5 3/3/5
f 3/3/5 64/64/5 62/62/5
f 3/3/5 62/62/5 12/12/5
f 12/12/5 62/62/5 58/58/5
f 12/12/5 58/58/5 54/54/5
f 54/54/5 58/58/5 56/56/5
f 62/62/5 60/60/5 58/58/5
f 52/52/5 50/50/5 54/54/5
f 54/54/5 50/50/5 36/36/5
f 54/54/5 36/36/5 30/30/5
f 30/30/5 36/36/5 32/32/5
f 32/32/5 36/36/5 34/34/5
f 36/36/5 50/50/5 44/44/5
f 44/44/5 50/50/5 48/48/5
f 44/44/5 48/48/5 46/46/5
f 42/42/5 40/40/5 44/44/5
f 44/44/5 40/40/5 36/36/5
f 40/40/5 38/38/5 36/36/5
f 28/28/5 26/26/5 30/30/5
f 30/30/5 26/26/5 22/22/5
f 30/30/5 22/22/5 16/16/5
f 16/16/5 22/22/5 20/20/5
f 16/16/5 20/20/5 18/18/5
f 26/26/5 24/24/5 22/22/5
f 14/14/5 12/12/5 16/16/5
f 16/16/5 12/12/5 30/30/5
f 10/10/5 8/8/5 12/12/5
f 12/12/5 8/8/5 3/3/5
f 8/8/5 6/6/5 3/3/5
f 12/12/5 54/54/5 30/30/5
f 2/2/6 1/1/6 63/63/6
f 63/63/6 1/1/6 61/61/6
f 61/61/6 1/1/6 11/11/6
f 61/61/6 11/11/6 57/57/6
f 57/57/6 11/11/6 53/53/6
f 57/57/6 53/53/6 55/55/6
f 5/5/6 7/7/6 1/1/6
f 1/1/6 7/7/6 11/11/6
f 7/7/6 9/9/6 11/11/6
f 13/13/6 15/15/6 11/11/6
f 11/11/6 15/15/6 29/29/6
f 11/11/6 29/29/6 35/35/6
f 35/35/6 29/29/6 31/31/6
f 35/35/6 31/31/6 33/33/6
f 17/17/6 19/19/6 15/15/6
f 15/15/6 19/19/6 21/21/6
f 15/15/6 21/21/6 29/29/6
f 29/29/6 21/21/6 25/25/6
f 29/29/6 25/25/6 27/27/6
f 21/21/6 23/23/6 25/25/6
f 37/37/6 39/39/6 35/35/6
f 35/35/6 39/39/6 43/43/6
f 35/35/6 43/43/6 49/49/6
f 49/49/6 43/43/6 47/47/6
f 47/47/6 43/43/6 45/45/6
f 39/39/6 41/41/6 43/43/6
f 51/51/6 53/53/6 49/49/6
f 49/49/6 53/53/6 35/35/6
f 57/57/6 59/59/6 61/61/6
f 35/35/6 53/53/6 11/11/6
